<?xml version="1.0" encoding="UTF-8" standalone="no"?>
<svg
   xmlns:dc="http://purl.org/dc/elements/1.1/"
   xmlns:cc="http://creativecommons.org/ns#"
   xmlns:rdf="http://www.w3.org/1999/02/22-rdf-syntax-ns#"
   xmlns:svg="http://www.w3.org/2000/svg"
   xmlns="http://www.w3.org/2000/svg"
   xmlns:xlink="http://www.w3.org/1999/xlink"
   xmlns:sodipodi="http://sodipodi.sourceforge.net/DTD/sodipodi-0.dtd"
   xmlns:inkscape="http://www.inkscape.org/namespaces/inkscape"
   inkscape:export-ydpi="118.15384"
   inkscape:export-xdpi="118.15384"
   inkscape:export-filename="/Users/satvik/Desktop/chess-club.png"
   width="420"
   height="360"
   viewBox="0 0 111.12499 95.250004"
   version="1.1"
   id="svg8"
   inkscape:version="1.0beta1 (32d4812, 2019-09-19)"
   sodipodi:docname="chess-club.svg">
  <defs
     id="defs2">
    <linearGradient
       inkscape:collect="always"
       id="linearGradient961">
      <stop
         style="stop-color:#0000ff;stop-opacity:1;"
         offset="0"
         id="stop957" />
      <stop
         style="stop-color:#0000ff;stop-opacity:0.31007752"
         offset="1"
         id="stop959" />
    </linearGradient>
    <linearGradient
       id="linearGradient2477"
       inkscape:collect="always">
      <stop
         id="stop2473"
         offset="0"
         style="stop-color:#0000ff;stop-opacity:1;" />
      <stop
         id="stop2475"
         offset="1"
         style="stop-color:#0000ff;stop-opacity:0.5" />
    </linearGradient>
    <linearGradient
       id="linearGradient2469"
       inkscape:collect="always">
      <stop
         id="stop2465"
         offset="0"
         style="stop-color:#0000ff;stop-opacity:1;" />
      <stop
         id="stop2467"
         offset="1"
         style="stop-color:#000000;stop-opacity:0.5" />
    </linearGradient>
    <linearGradient
       inkscape:collect="always"
       id="linearGradient2463">
      <stop
         style="stop-color:#ffffff;stop-opacity:1;"
         offset="0"
         id="stop2459" />
      <stop
         style="stop-color:#000000;stop-opacity:1"
         offset="1"
         id="stop2461" />
    </linearGradient>
    <linearGradient
       inkscape:collect="always"
       id="linearGradient2447">
      <stop
         style="stop-color:#b3b3b3;stop-opacity:1"
         offset="0"
         id="stop2443" />
      <stop
         id="stop2449"
         offset="0.39272428"
         style="stop-color:#b3b3b3;stop-opacity:1" />
      <stop
         style="stop-color:#000000;stop-opacity:1"
         offset="1"
         id="stop2445" />
    </linearGradient>
    <linearGradient
       id="linearGradient1598"
       inkscape:collect="always">
      <stop
         id="stop1594"
         offset="0"
         style="stop-color:#ffffff;stop-opacity:1;" />
      <stop
         id="stop1596"
         offset="1"
         style="stop-color:#000000;stop-opacity:1" />
    </linearGradient>
    <linearGradient
       id="linearGradient1590"
       inkscape:collect="always">
      <stop
         id="stop1586"
         offset="0"
         style="stop-color:#cccccc;stop-opacity:1" />
      <stop
         id="stop1588"
         offset="1"
         style="stop-color:#000000;stop-opacity:1" />
    </linearGradient>
    <linearGradient
       id="linearGradient1544"
       inkscape:collect="always">
      <stop
         style="stop-color:#000000;stop-opacity:1"
         offset="0"
         id="stop1542" />
      <stop
         id="stop1548"
         offset="0.19613118"
         style="stop-color:#b3b3b3;stop-opacity:0.44313725;" />
      <stop
         style="stop-color:#b3b3b3;stop-opacity:1"
         offset="1"
         id="stop1540" />
    </linearGradient>
    <linearGradient
       id="linearGradient1515"
       inkscape:collect="always">
      <stop
         id="stop1511"
         offset="0"
         style="stop-color:#b3b3b3;stop-opacity:1;" />
      <stop
         id="stop1513"
         offset="1"
         style="stop-color:#000000;stop-opacity:1" />
    </linearGradient>
    <linearGradient
       id="linearGradient1483"
       inkscape:collect="always">
      <stop
         id="stop1479"
         offset="0"
         style="stop-color:#b3b3b3;stop-opacity:1;" />
      <stop
         id="stop1481"
         offset="1"
         style="stop-color:#000000;stop-opacity:1" />
    </linearGradient>
    <linearGradient
       id="linearGradient1469"
       inkscape:collect="always">
      <stop
         id="stop1465"
         offset="0"
         style="stop-color:#b3b3b3;stop-opacity:1;" />
      <stop
         id="stop1467"
         offset="1"
         style="stop-color:#000000;stop-opacity:1" />
    </linearGradient>
    <linearGradient
       gradientTransform="matrix(3.7795276,0,0,3.7795276,-191.99998,-351.99999)"
       spreadMethod="pad"
       gradientUnits="userSpaceOnUse"
       y2="127.74474"
       x2="82.738701"
       y1="139.23732"
       x1="94.632195"
       id="linearGradient1471"
       xlink:href="#linearGradient1469"
       inkscape:collect="always" />
    <linearGradient
       gradientUnits="userSpaceOnUse"
       y2="114.38126"
       x2="105.85752"
       y1="118.79121"
       x1="111.47018"
       id="linearGradient1485"
       xlink:href="#linearGradient1483"
       inkscape:collect="always" />
    <linearGradient
       gradientUnits="userSpaceOnUse"
       y2="159.01527"
       x2="83.540512"
       y1="166.36519"
       x1="92.894943"
       id="linearGradient1517"
       xlink:href="#linearGradient1515"
       inkscape:collect="always" />
    <linearGradient
       gradientUnits="userSpaceOnUse"
       y2="211.31705"
       x2="179.86475"
       y1="331.82211"
       x1="64.780281"
       id="linearGradient1546"
       xlink:href="#linearGradient1544"
       inkscape:collect="always" />
    <linearGradient
       gradientUnits="userSpaceOnUse"
       y2="343.45187"
       x2="163.64471"
       y1="242.17665"
       x1="317.04434"
       id="linearGradient1592"
       xlink:href="#linearGradient1590"
       inkscape:collect="always" />
    <linearGradient
       gradientTransform="translate(0.03160781,1.4858333e-6)"
       gradientUnits="userSpaceOnUse"
       y2="172.13036"
       x2="98.424995"
       y1="163.05891"
       x1="103.90565"
       id="linearGradient1600"
       xlink:href="#linearGradient2463"
       inkscape:collect="always" />
    <linearGradient
       y2="142.74271"
       x2="101.35431"
       y1="136.5061"
       x1="104.09463"
       gradientTransform="translate(0.03160781,1.4858333e-6)"
       gradientUnits="userSpaceOnUse"
       id="linearGradient1611"
       xlink:href="#linearGradient1598"
       inkscape:collect="always" />
    <linearGradient
       spreadMethod="pad"
       y2="140.85283"
       x2="105.41756"
       y1="151.43614"
       x1="112.78808"
       gradientTransform="matrix(3.7795276,0,0,3.7795276,-191.99998,-351.99999)"
       gradientUnits="userSpaceOnUse"
       id="linearGradient1618"
       xlink:href="#linearGradient2447"
       inkscape:collect="always" />
    <linearGradient
       gradientUnits="userSpaceOnUse"
       y2="121.64484"
       x2="134.71071"
       y1="137.66458"
       x1="114.41579"
       id="linearGradient2471"
       xlink:href="#linearGradient2469"
       inkscape:collect="always" />
    <linearGradient
       gradientUnits="userSpaceOnUse"
       y2="131.88741"
       x2="84.475952"
       y1="118.79121"
       x1="96.369453"
       id="linearGradient2479"
       xlink:href="#linearGradient2477"
       inkscape:collect="always" />
    <linearGradient
       y2="121.64484"
       x2="134.71071"
       y1="137.66458"
       x1="114.41579"
       gradientTransform="matrix(3.7795276,0,0,3.7795276,-180.04913,-337.38407)"
       gradientUnits="userSpaceOnUse"
       id="linearGradient931"
       xlink:href="#linearGradient2469"
       inkscape:collect="always" />
    <linearGradient
       gradientTransform="matrix(3.7795276,0,0,3.7795276,-180.04913,-337.38407)"
       y2="121.64484"
       x2="134.71071"
       y1="137.66458"
       x1="114.41579"
       gradientUnits="userSpaceOnUse"
       id="linearGradient944"
       xlink:href="#linearGradient2469"
       inkscape:collect="always" />
    <linearGradient
       y2="160.13469"
       x2="84.564774"
       y1="149.76894"
       x1="93.838341"
       gradientTransform="matrix(3.7795276,0,0,3.7795276,-180.04913,-337.38407)"
       gradientUnits="userSpaceOnUse"
       id="linearGradient955"
       xlink:href="#linearGradient961"
       inkscape:collect="always" />
  </defs>
  <sodipodi:namedview
     fit-margin-bottom="0"
     fit-margin-right="0"
     fit-margin-left="0"
     fit-margin-top="0"
     units="px"
     inkscape:snap-global="true"
     id="base"
     pagecolor="#000000"
     bordercolor="#666666"
     borderopacity="1.0"
     inkscape:pageopacity="0"
     inkscape:pageshadow="2"
     inkscape:zoom="2.3931363"
     inkscape:cx="196.67563"
     inkscape:cy="190.75712"
     inkscape:document-units="mm"
     inkscape:current-layer="g40"
     inkscape:document-rotation="0"
     showgrid="false"
     inkscape:object-nodes="false"
     showguides="false"
     inkscape:snap-grids="true"
     inkscape:window-width="1440"
     inkscape:window-height="855"
     inkscape:window-x="0"
     inkscape:window-y="23"
     inkscape:window-maximized="0" />
  <metadata
     id="metadata5">
    <rdf:RDF>
      <cc:Work
         rdf:about="">
        <dc:format>image/svg+xml</dc:format>
        <dc:type
           rdf:resource="http://purl.org/dc/dcmitype/StillImage" />
        <dc:title></dc:title>
      </cc:Work>
    </rdf:RDF>
  </metadata>
  <g
     transform="translate(-50.799995,-93.133331)"
     inkscape:groupmode="layer"
     id="layer2"
     inkscape:label="IISERK"
     style="display:inline;opacity:1">
    <g
       transform="translate(0,3.8671279)"
       id="g56">
      <g
         transform="translate(3.1619958)"
         id="g40">
        <path
           inkscape:connector-curvature="0"
           d="m 106.09128,142.91272 -5.78466,0.0646 c -0.0847,2.05495 -0.1371,3.46784 -0.22531,5.25239 -0.0236,0.47739 -0.138237,1.1355 -0.189138,1.61075 -0.111109,1.03682 -0.304009,2.06498 -0.529682,3.08302 -0.12808,0.57778 -0.268444,1.16599 -0.467157,1.71256 -0.19871,0.54657 -0.382383,0.79025 -0.716235,1.55752 -0.333848,0.76727 -0.444013,1.39226 -0.599964,2.10427 -0.174659,0.79743 -0.365352,2.37556 -0.365352,2.37556 0,0 -0.07945,-0.006 -0.596344,0.005 -0.51689,0.0108 -0.689801,0.14159 -1.075905,0.30334 -0.386098,0.16176 -0.511553,0.54169 -0.633552,0.77618 0,0 -0.09198,0.35297 -0.09198,0.82011 0,0.46714 0.03072,0.37393 0.09302,0.65422 0.0623,0.28029 0.207957,0.41088 0.374137,0.56069 0.166179,0.14981 0.386313,0.22449 0.591695,0.31109 0.168241,0.0709 0.520899,0.16899 0.520899,0.16899 l -0.03566,0.36431 c 0,0 -0.339394,0.0178 -0.837674,0.0801 -1.03747,0.25998 -1.219033,0.63267 -1.547193,1.06867 -0.328131,0.5618 -0.426572,1.26373 -0.311608,1.86862 0.186857,0.62285 0.275553,0.90756 0.836123,1.46813 0.56057,0.5606 1.281576,0.58704 1.281576,0.58704 l 7.419184,-0.11058 7.41919,0.11058 c 0,0 0.721,-0.0265 1.28157,-0.58704 0.56057,-0.56057 0.64927,-0.84528 0.83613,-1.46813 0.11496,-0.60489 0.0165,-1.30682 -0.31161,-1.86862 -0.32816,-0.436 -0.51024,-0.80869 -1.54771,-1.06867 -0.49828,-0.0623 -0.83716,-0.0801 -0.83716,-0.0801 l -0.0357,-0.36431 c 0,0 0.35266,-0.0981 0.5209,-0.16899 0.20538,-0.0866 0.42552,-0.16128 0.5917,-0.31109 0.16618,-0.14981 0.31132,-0.2804 0.37362,-0.56069 0.0623,-0.28029 0.0935,-0.18708 0.0935,-0.65422 0,-0.46714 -0.092,-0.82011 -0.092,-0.82011 -0.122,-0.23449 -0.24797,-0.61442 -0.63407,-0.77618 -0.3861,-0.16175 -0.5585,-0.29251 -1.07539,-0.30334 -0.51689,-0.0108 -0.59634,-0.005 -0.59634,-0.005 0,0 -0.1907,-1.57813 -0.36536,-2.37556 -0.15595,-0.71201 -0.26662,-1.337 -0.60048,-2.10427 -0.33385,-0.76727 -0.51752,-1.01095 -0.71623,-1.55752 -0.19871,-0.54657 -0.33908,-1.13478 -0.46716,-1.71256 -0.22568,-1.01804 -0.41805,-2.0462 -0.52917,-3.08302 -0.0509,-0.47525 -0.16606,-1.13336 -0.18965,-1.61075 -0.0893,-1.8065 -0.14309,-3.25373 -0.22789,-5.31699 z"
           style="fill:url(#linearGradient1600);fill-opacity:1;stroke:none;stroke-width:0.264583px;stroke-linecap:butt;stroke-linejoin:miter;stroke-opacity:1"
           id="path392" />
        <path
           inkscape:connector-curvature="0"
           d="m 103.15141,123.20178 c -0.13081,0.0173 -0.2736,0.01 -0.37827,0.0894 -0.0874,0.067 -0.23358,0.23358 -0.23358,0.23358 v 1.65054 h -1.61954 c 0,0 -0.16007,0.0877 -0.21807,0.15555 -0.0905,0.10588 -0.16637,0.23589 -0.18707,0.37362 -0.0282,0.18733 -0.003,0.39796 0.0935,0.56069 0.0606,0.10168 0.2806,0.21807 0.2806,0.21807 h 1.61903 v 1.86862 c 0,0 -0.0622,-6e-5 -0.49816,0.24908 -0.43602,0.24914 -0.52917,0.6227 -0.52917,0.6227 0,0 -0.82163,-0.0426 -1.40147,0 -1.494834,0.0934 -2.086694,0.52969 -2.086694,0.52969 l 0.03101,2.33577 c 0,0 0.531366,0.32293 0.965317,0.77825 0.339725,0.35645 0.560496,0.61817 0.840774,1.21491 0.188173,0.40063 0.388753,1.29395 0.467153,1.96164 0.0545,0.46395 0,1.40147 0,1.40147 h -1.993156 l 2.180226,1.40146 c 0,0 -0.11066,2.51447 -0.17725,4.1305 l 5.78466,-0.0646 c -0.0648,-1.57777 -0.17415,-4.0659 -0.17415,-4.0659 l 2.17971,-1.40146 h -1.99316 c 0,0 -0.0545,-0.93752 0,-1.40147 0.0784,-0.66769 0.27899,-1.56101 0.46716,-1.96164 0.28028,-0.59674 0.50105,-0.85846 0.84077,-1.21491 0.43395,-0.45532 0.96583,-0.77825 0.96583,-0.77825 l 0.031,-2.33577 c 0,0 -0.59185,-0.43626 -2.08669,-0.52969 -0.57983,-0.0426 -1.40147,0 -1.40147,0 0,0 -0.0931,-0.37356 -0.52916,-0.6227 -0.43601,-0.24914 -0.49868,-0.24908 -0.49868,-0.24908 v -1.86862 h 1.61954 c 0,0 0.22001,-0.11639 0.2806,-0.21807 0.097,-0.16273 0.12121,-0.37336 0.093,-0.56069 -0.0207,-0.13773 -0.0961,-0.26774 -0.18655,-0.37362 -0.058,-0.0679 -0.21808,-0.15555 -0.21808,-0.15555 h -1.61954 v -1.65054 c 0,0 -0.14623,-0.16655 -0.23358,-0.23358 -0.10466,-0.0803 -0.24797,-0.0721 -0.37878,-0.0894 -0.0159,-0.002 -0.0323,0.002 -0.0486,0.006 -0.0165,-0.004 -0.0331,-0.008 -0.0491,-0.006 z"
           style="fill:url(#linearGradient1611);fill-opacity:1;stroke:none;stroke-width:0.264583px;stroke-linecap:butt;stroke-linejoin:miter;stroke-opacity:1"
           id="path1608" />
        <path
           transform="matrix(0.26458333,0,0,0.26458333,50.799995,93.133331)"
           inkscape:connector-curvature="0"
           d="m 111.29883,167.13867 c -2.22612,-0.007 -4.45146,0.0565 -6.66797,0.17969 -8.784004,0.48824 -25.873048,5.19531 -25.873048,5.19531 v 7.61133 5.15625 129.08203 h 79.931638 c 7.61267,-3.38339 15.22718,-6.76699 22.83985,-10.15039 H 87.638672 V 179.36523 c -0.154292,0.0132 -0.308599,0.0258 -0.462891,0.0391 0.166876,-0.046 0.333125,-0.0823 0.5,-0.0977 7.016795,-1.84505 14.338649,-2.4113 21.550779,-2.11914 6.89785,0.27931 13.88927,0.30855 20.62305,2.08398 11.36917,2.99762 32.31836,13.66797 32.31836,13.66797 l 23.80664,0.67578 c 0,0 -16.20241,-7.71416 -22.27344,-10.79296 -6.04715,-3.06671 -9.38341,-4.81837 -14.25586,-6.91797 -5.94153,-2.56029 -12.01086,-4.71097 -18.27539,-6.35938 -6.50403,-1.71133 -13.19274,-2.38389 -19.87109,-2.40625 z"
           style="fill:url(#linearGradient1546);fill-opacity:1;stroke:none;stroke-width:0.999999px;stroke-linecap:butt;stroke-linejoin:miter;stroke-opacity:1"
           id="path127" />
        <path
           transform="matrix(0.26458333,0,0,0.26458333,50.799995,93.133331)"
           inkscape:connector-curvature="0"
           d="m 210.07812,180.15625 -23.79101,14.77539 c 17.80547,8.74854 35.62071,17.04658 51.83398,29.68945 9.63912,7.36819 17.7392,15.76069 19.73438,26.97266 0.40422,-1.53574 0.75081,-3.08593 1.05469,-4.64453 2.39882,-14.09435 0.70084,-30.07978 -9.10938,-41.17969 -10.36157,-12.01134 -24.82693,-19.54969 -39.31836,-25.44141 -0.13317,-0.0573 -0.27098,-0.11464 -0.4043,-0.17187 z"
           style="fill:url(#linearGradient1618);fill-opacity:1;stroke:none;stroke-width:0.999999px;stroke-linecap:butt;stroke-linejoin:miter;stroke-opacity:1"
           id="path146" />
        <path
           transform="matrix(0.26458333,0,0,0.26458333,50.799995,93.133331)"
           inkscape:connector-curvature="0"
           d="m 140.78125,117.36719 c -0.15462,12.12431 -0.35217,24.2588 0.17187,36.37695 -0.33815,7.9124 4.36344,14.66504 9.47657,20.23047 6.88223,6.3137 15.66673,10.02727 23.59375,14.83789 4.08484,2.13123 8.16163,4.10364 12.26367,6.11914 l 23.79101,-14.77539 c -19.44376,-8.34636 -40.40214,-16.08473 -54.5957,-32.53125 -7.97952,-8.19923 -13.62879,-18.76083 -14.70117,-30.25781 z"
           style="fill:url(#linearGradient1471);fill-opacity:1;stroke:none;stroke-width:0.999999px;stroke-linecap:butt;stroke-linejoin:miter;stroke-opacity:1"
           id="path1615" />
        <path
           id="path247"
           style="fill:url(#linearGradient1485);fill-opacity:1;stroke:none;stroke-width:0.264583px;stroke-linecap:butt;stroke-linejoin:miter;stroke-opacity:1"
           d="m 119.23719,134.64198 c 0.11845,-3.69196 0.40708,-7.42037 -0.0588,-11.09107 -0.63815,-2.27558 -1.17311,-3.10277 -2.18764,-4.40657 -1.80972,-1.89158 -4.04468,-3.32584 -6.37255,-4.49823 -1.27314,-0.68779 -2.59411,-1.28177 -3.91047,-1.88093 -1.57788,0.62848 -3.15577,1.25695 -4.73365,1.88543 -0.60174,1.0965 -1.20347,2.19299 -1.80521,3.28949 2.41364,0.41985 4.79866,1.05343 7.01332,2.11904 2.54346,1.20181 5.05044,2.56144 7.22027,4.36558 1.9582,1.9002 3.7785,3.83097 4.37159,6.87799 0.30991,1.11065 0.30345,2.19694 0.46316,3.33927 z"
           inkscape:connector-curvature="0"
           sodipodi:nodetypes="cccccccccccc" />
        <path
           sodipodi:nodetypes="ccsssccsssscc"
           inkscape:connector-curvature="0"
           d="m 88.015702,134.15729 0.05673,-9.75793 c 0.223539,-2.00565 1.264719,-3.76957 2.647007,-5.20799 2.58972,-2.69487 5.82458,-4.61483 9.178609,-6.21781 5.339592,-2.55192 10.897182,-4.42652 15.620722,-8.20875 3.12184,-2.49972 4.5219,-7.341515 4.5219,-7.341515 0,0 -0.008,6.109085 -0.0281,9.162175 -0.65856,3.11558 -3.32714,5.19565 -5.88508,6.70769 -3.27387,1.93524 -6.15739,3.07079 -10.11252,5.06611 -3.55365,1.79278 -7.156031,3.76864 -10.431331,6.02452 -2.34129,1.61258 -4.209742,4.01268 -4.961761,6.82753 -0.259823,0.97253 -0.606227,2.94597 -0.606227,2.94597 z"
           style="display:inline;fill:url(#linearGradient2479);fill-opacity:1;stroke:none;stroke-width:0.264583px;stroke-linecap:butt;stroke-linejoin:miter;stroke-opacity:1"
           id="path137-2" />
        <path
           id="path143"
           style="fill:url(#linearGradient1517);fill-opacity:1;stroke:none;stroke-width:0.264583px;stroke-linecap:butt;stroke-linejoin:miter;stroke-opacity:1"
           d="m 87.310761,162.42411 c 0.427655,2.89609 2.572985,5.15493 4.779171,6.90301 2.068483,1.69201 4.432438,2.96621 6.739445,4.29569 2.571193,-1.10431 5.142393,-2.20862 7.713583,-3.31293 -2.42738,-1.17885 -4.90055,-2.2736 -7.26849,-3.56858 -2.844686,-1.77772 -5.910747,-3.26477 -8.389583,-5.5653 -3.04818,-3.14202 -2.805091,-4.8744 -3.499376,-8.14 -0.117912,2.61915 -0.06413,9.00692 -0.09434,9.32948"
           inkscape:connector-curvature="0"
           sodipodi:nodetypes="cccccccc" />
        <path
           transform="matrix(0.26458333,0,0,0.26458333,50.799995,93.133331)"
           inkscape:connector-curvature="0"
           d="m 298.44531,142.7207 c -0.80643,0.0224 -1.61308,0.0757 -2.41992,0.16211 -5.02193,0.53813 -9.90333,2.52674 -13.94531,5.83594 -8.88064,7.27068 -12.18829,18.8562 -13.23242,29.76758 -1.34291,14.03357 -0.40222,28.18253 -0.0606,42.23047 0.28312,11.64536 -0.21298,23.41858 -4.27344,34.5957 -2.64363,7.27703 -6.91447,13.54974 -12.22656,18.9082 -5.08653,5.13094 -10.29859,10.3629 -16.63867,13.94336 -10.77328,6.08406 -22.25655,10.88566 -33.54297,15.96289 -0.007,0.003 -0.013,0.005 -0.0195,0.008 -0.13672,-0.003 -0.27344,-0.005 -0.41016,-0.008 -9.00567,3.35929 -18.00995,6.71885 -27.01562,10.07813 46.10662,0.0831 92.23584,0.4075 138.32812,0.33984 8.15516,-1.13132 12.92724,-2.38079 18.56641,-5.55469 4.43951,-2.49872 7.86764,-6.25291 10.91601,-10.42578 8.36939,-11.45665 13.27284,-24.82356 19.36914,-37.49023 3.7149,-7.7187 7.91257,-16.505 14.67774,-22.0332 3.22613,-2.63626 6.17927,-4.63244 11.0625,-4.81446 -3.28785,-5.58013 -7.94258,-11.11433 -14.74414,-12.11718 -3.22617,-0.4757 -6.80744,-0.73731 -9.90235,0.10156 -3.44326,0.93328 -6.32041,3.02648 -8.56836,5.95312 -3.10423,4.04149 -5.5642,8.40466 -7.52929,13.1211 -5.11745,12.28252 -8.95304,25.08013 -15.22071,36.89648 -3.47644,6.55408 -8.12219,12.41253 -13.14257,17.78906 -3.94103,3.69011 -8.41247,7.7431 -13.75782,8.74414 -3.99982,0.74907 -8.02917,1.06656 -12.07226,1.16407 1.70167,-1.45338 3.42007,-2.88583 5.20117,-4.24024 7.89555,-6.00404 15.57147,-12.59235 20.78125,-21.17187 5.06479,-8.34078 9.10545,-17.2341 12.48242,-26.375 5.12251,-13.86569 7.94126,-28.63578 15.41992,-41.56055 3.51855,-6.08084 8.52898,-11.55411 14.99024,-14.42383 1.89717,-0.84261 5.18554,-1.76562 5.18554,-1.76562 0,0 -9.79829,-10.05163 -16.22265,-12.07032 -4.46438,-1.40281 -9.47378,-1.26812 -14.06836,-0.53515 -4.62943,0.73852 -8.36318,3.84604 -11.58399,7.05664 -4.86965,4.8542 -7.50716,11.6059 -9.27734,18.16992 -3.72896,13.82733 -5.52721,28.16998 -9.58594,41.91797 -2.0098,6.80776 -5.68786,13.07876 -8.95507,19.39844 -3.19427,6.1785 -7.05459,12.12374 -11.82813,17.20312 -3.90168,4.15166 -8.47102,7.67713 -13.26172,10.85352 -4.65707,3.08776 -9.91754,4.7051 -14.99609,6.81836 -4.7727,-0.0888 -9.54567,-0.17683 -14.31836,-0.26563 6.00068,-2.53128 12.19213,-4.69916 18.58984,-9.13476 5.08097,-3.52271 10.03108,-6.87101 14.04883,-11.40039 4.93826,-5.56714 8.64061,-10.70121 11.95703,-17.40821 3.02695,-6.12151 5.42842,-13.25988 7.29297,-20.00195 2.02526,-7.32325 3.29625,-16.65599 3.97656,-24.33984 0.69479,-7.8474 1.46517,-16.47711 2.78907,-24.10938 1.42862,-8.23604 3.96916,-14.63365 7.57812,-22.19531 3.65684,-7.66194 8.21095,-12.65242 15.68164,-16.09961 2.73037,-1.25987 5.61914,-1.79297 5.61914,-1.79297 -0.76445,-0.99526 -1.50074,-2.02429 -2.60156,-2.98633 -4.47874,-3.91408 -8.10431,-6.6559 -12.68555,-8.92187 -5.15455,-2.54957 -10.76123,-3.93425 -16.40625,-3.77735 z"
           style="fill:url(#linearGradient1592);fill-opacity:1;stroke:none;stroke-width:0.999999px;stroke-linecap:butt;stroke-linejoin:miter;stroke-opacity:1"
           id="path254" />
        <path
           transform="matrix(0.26458333,0,0,0.26458333,47.637999,89.266203)"
           d="M 224.89648 209.82617 L 212.9375 188.24414 C 206.89228 190.91775 200.85758 193.56802 194.85352 196.4375 C 194.29456 196.70464 193.7543 197.01126 193.19727 197.2832 L 205.45898 219.4375 C 207.11693 218.58086 208.75905 217.62791 210.41406 216.79297 C 215.80575 214.07292 220.2993 211.99486 224.89648 209.82617 z "
           style="fill:url(#linearGradient931);fill-opacity:1;stroke:none;stroke-width:0.99999899999999997px;stroke-linecap:butt;stroke-linejoin:miter;stroke-opacity:1"
           id="path926" />
        <path
           transform="matrix(0.26458333,0,0,0.26458333,47.637999,89.266203)"
           d="M 217.4668 213.40039 L 199.81836 194.1875 C 198.16104 194.94651 196.502 195.64965 194.85352 196.4375 C 182.17684 202.49601 169.95196 209.75216 160.16406 219.9375 C 154.93966 225.37405 151.00307 232.04068 150.1582 239.62109 L 149.94336 276.50195 C 149.94336 276.50195 151.25237 269.04289 152.23438 265.36719 C 155.07665 254.72838 162.13929 245.65729 170.98828 239.5625 C 183.36737 231.03634 196.98295 223.56883 210.41406 216.79297 C 213.03971 215.46836 215.06111 214.55848 217.4668 213.40039 z "
           style="fill:url(#linearGradient955);fill-opacity:1;stroke:none;stroke-width:0.99999899999999997px;stroke-linecap:butt;stroke-linejoin:miter;stroke-opacity:1"
           id="path137" />
        <path
           sodipodi:nodetypes="csccscc"
           inkscape:connector-curvature="0"
           transform="matrix(0.26458333,0,0,0.26458333,47.637999,89.266203)"
           d="m 271.19431,136.92293 c 0,0 -5.50265,19.04142 -17.30173,28.48918 -16.39446,13.12736 -35.4423,20.24238 -54.07422,28.77539 l 17.64844,19.21289 c 11.29051,-5.43524 20.96767,-9.72434 31.16797,-15.75391 9.6678,-5.71479 19.75314,-13.57809 22.24218,-25.35351 0.68243,-13.20703 0.31736,-35.37004 0.31736,-35.37004 z"
           style="fill:url(#linearGradient944);fill-opacity:1;stroke:none;stroke-width:0.999999px;stroke-linecap:butt;stroke-linejoin:miter;stroke-opacity:1"
           id="path946" />
      </g>
    </g>
  </g>
</svg>
